<svg xmlns="http://www.w3.org/2000/svg" width="1600" height="900" viewBox="0 0 1600 900" role="img" aria-labelledby="title desc">
  <title id="title">Neo4j Natural Language UI</title>
  <desc id="desc">Abstract preview card for graph query interface.</desc>
  <defs>
    <radialGradient id="bg" cx="20%" cy="20%" r="90%">
      <stop offset="0%" stop-color="#fdf4ff"/>
      <stop offset="100%" stop-color="#deefff"/>
    </radialGradient>
  </defs>
  <rect width="1600" height="900" fill="url(#bg)"/>
  <g stroke="#4e39cf" stroke-width="3" fill="#ffffff" fill-opacity="0.7">
    <circle cx="280" cy="250" r="52"/><circle cx="530" cy="180" r="40"/><circle cx="740" cy="280" r="50"/>
    <circle cx="960" cy="190" r="38"/><circle cx="1160" cy="300" r="58"/><circle cx="1360" cy="220" r="44"/>
    <circle cx="510" cy="460" r="52"/><circle cx="740" cy="520" r="40"/><circle cx="980" cy="460" r="50"/>
    <circle cx="1220" cy="540" r="40"/>
  </g>
  <g stroke="#4e39cf" stroke-width="4" opacity="0.65">
    <path d="M332 238 L494 194 L693 266 L923 203 L1108 282 L1318 234"/>
    <path d="M530 220 L510 408 L740 480 L980 420 L1220 500"/>
    <path d="M740 330 L740 480"/>
  </g>
  <g>
    <text x="120" y="760" fill="#2d216f" font-family="Fraunces, serif" font-size="82">Neo4j Natural Language UI</text>
    <text x="120" y="826" fill="#3a3186" font-family="IBM Plex Sans, sans-serif" font-size="34">querying knowledge graphs in plain language</text>
  </g>
</svg>
