<svg xmlns="http://www.w3.org/2000/svg" width="2190" height="1440" viewBox="0 -20 2190 1440">
  <defs>
    <marker id="arrowhead" markerWidth="10" markerHeight="7" refX="9" refY="3.5" orient="auto">
      <polygon points="0 0, 10 3.5, 0 7" fill="#495057"/>
    </marker>
  </defs>
  <rect x="0" y="-20" width="2190" height="1440" fill="#ffffff"/>
  <text y="53.25" font-family="Arial, sans-serif" font-size="30" fill="#0f172a" text-anchor="start"><tspan x="60" dy="0">Demo Projects Portfolio app flow</tspan></text>
  <text y="85.375" font-family="Arial, sans-serif" font-size="17" fill="#475569" text-anchor="start"><tspan x="60" dy="0">Single-page static portfolio: project metadata -&gt; ranked stream -&gt; filters -&gt; dossier modal -&gt; live/source/local access</tspan></text>
  <rect x="40" y="110" width="1220" height="270" rx="8" stroke="#adb5bd" fill="none" stroke-width="2" opacity="1" stroke-dasharray="10 8"/><text x="54" y="134" font-family="Arial, sans-serif" font-size="16" fill="#6b7280">Static App Inputs</text>
  <rect x="80" y="190" width="190" height="76" rx="12" stroke="#1d4ed8" fill="#edf7ff" stroke-width="2" opacity="1"/>
  <text y="223.5" font-family="Arial, sans-serif" font-size="18" fill="#1e1e1e" text-anchor="middle"><tspan x="175" dy="0">Visitor opens</tspan><tspan x="175" dy="22.5">static site</tspan></text>
  <rect x="330" y="180" width="220" height="96" rx="12" stroke="#4f46e5" fill="#eef2ff" stroke-width="2" opacity="1"/>
  <text y="223.5" font-family="Arial, sans-serif" font-size="18" fill="#1e1e1e" text-anchor="middle"><tspan x="440" dy="0">index.html</tspan><tspan x="440" dy="22.5">HTML + CSS + JS</tspan></text>
  <rect x="620" y="150" width="220" height="86" rx="12" stroke="#047857" fill="#ecfdf5" stroke-width="2" opacity="1"/>
  <text y="188.5" font-family="Arial, sans-serif" font-size="18" fill="#1e1e1e" text-anchor="middle"><tspan x="730" dy="0">rawProjects[]</tspan><tspan x="730" dy="22.5">19 project records</tspan></text>
  <rect x="620" y="258" width="220" height="86" rx="12" stroke="#047857" fill="#ecfdf5" stroke-width="2" opacity="1"/>
  <text y="296.5" font-family="Arial, sans-serif" font-size="18" fill="#1e1e1e" text-anchor="middle"><tspan x="730" dy="0">static/</tspan><tspan x="730" dy="22.5">preview + gallery media</tspan></text>
  <rect x="910" y="194" width="250" height="96" rx="12" stroke="#c2410c" fill="#fff7ed" stroke-width="2" opacity="1"/>
  <text y="237.5" font-family="Arial, sans-serif" font-size="18" fill="#1e1e1e" text-anchor="middle"><tspan x="1035" dy="0">External assets</tspan><tspan x="1035" dy="22.5">p5.js + Google Fonts</tspan></text>
  <polyline points="270,228 330,228" stroke="#495057" fill="none" stroke-width="2" opacity="1" marker-end="url(#arrowhead)"/>
  <polyline points="550,210 620,193" stroke="#495057" fill="none" stroke-width="2" opacity="1" marker-end="url(#arrowhead)"/>
  <polyline points="550,242 620,302" stroke="#495057" fill="none" stroke-width="2" opacity="1" marker-end="url(#arrowhead)"/>
  <polyline points="910,230 550,230" stroke="#495057" fill="none" stroke-width="2" opacity="1" marker-end="url(#arrowhead)"/>
  <rect x="40" y="430" width="1220" height="340" rx="8" stroke="#adb5bd" fill="none" stroke-width="2" opacity="1" stroke-dasharray="10 8"/><text x="54" y="454" font-family="Arial, sans-serif" font-size="16" fill="#6b7280">Runtime Initialization</text>
  <rect x="80" y="528" width="220" height="92" rx="12" stroke="#64748b" fill="#f8fafc" stroke-width="2" opacity="1"/>
  <text y="569.5" font-family="Arial, sans-serif" font-size="18" fill="#1e1e1e" text-anchor="middle"><tspan x="190" dy="0">p5 background</tspan><tspan x="190" dy="22.5">setup + grid + motion prefs</tspan></text>
  <rect x="360" y="528" width="230" height="92" rx="12" stroke="#047857" fill="#ecfdf5" stroke-width="2" opacity="1"/>
  <text y="569.5" font-family="Arial, sans-serif" font-size="18" fill="#1e1e1e" text-anchor="middle"><tspan x="475" dy="0">Build projects</tspan><tspan x="475" dy="22.5">access labels + rank sort</tspan></text>
  <rect x="650" y="528" width="230" height="92" rx="12" stroke="#0284c7" fill="#e0f2fe" stroke-width="2" opacity="1"/>
  <text y="569.5" font-family="Arial, sans-serif" font-size="18" fill="#1e1e1e" text-anchor="middle"><tspan x="765" dy="0">Render UI</tspan><tspan x="765" dy="22.5">filters + stream + rail</tspan></text>
  <rect x="940" y="518" width="240" height="112" rx="12" stroke="#4f46e5" fill="#eef2ff" stroke-width="2" opacity="1"/>
  <text y="558.25" font-family="Arial, sans-serif" font-size="18" fill="#1e1e1e" text-anchor="middle"><tspan x="1060" dy="0">Attach behavior</tspan><tspan x="1060" dy="22.5">modal, reveal, resize,</tspan><tspan x="1060" dy="22.5">scroll, last updated</tspan></text>
  <polygon points="735,660 810,702 735,744 660,702" stroke="#b45309" fill="#fff4db" stroke-width="2" opacity="1"/>
  <text y="708.375" font-family="Arial, sans-serif" font-size="17" fill="#1e1e1e" text-anchor="middle"><tspan x="735" dy="0">Init throws?</tspan></text>
  <rect x="910" y="666" width="220" height="78" rx="12" stroke="#be123c" fill="#fff1f2" stroke-width="2" opacity="1"/>
  <text y="700.5" font-family="Arial, sans-serif" font-size="18" fill="#1e1e1e" text-anchor="middle"><tspan x="1020" dy="0">Render fail-safe</tspan><tspan x="1020" dy="22.5">plain project list</tspan></text>
  <polyline points="300,574 360,574" stroke="#495057" fill="none" stroke-width="2" opacity="1" marker-end="url(#arrowhead)"/>
  <polyline points="590,574 650,574" stroke="#495057" fill="none" stroke-width="2" opacity="1" marker-end="url(#arrowhead)"/>
  <polyline points="880,574 940,574" stroke="#495057" fill="none" stroke-width="2" opacity="1" marker-end="url(#arrowhead)"/>
  <polyline points="735,620 735,660" stroke="#495057" fill="none" stroke-width="2" opacity="1" marker-end="url(#arrowhead)"/>
  <polyline points="810,704 910,704" stroke="#495057" fill="none" stroke-width="2" opacity="1" marker-end="url(#arrowhead)"/>
  <text y="705.25" font-family="Arial, sans-serif" font-size="14" fill="#495057" text-anchor="middle"><tspan x="860" dy="0">yes</tspan></text>
  <rect x="40" y="820" width="1220" height="430" rx="8" stroke="#adb5bd" fill="none" stroke-width="2" opacity="1" stroke-dasharray="10 8"/><text x="54" y="844" font-family="Arial, sans-serif" font-size="16" fill="#6b7280">Visitor Browse Flow</text>
  <ellipse cx="160" cy="989" rx="80" ry="37" stroke="#0f8f55" fill="#e7f8ef" stroke-width="2" opacity="1"/>
  <text y="995.375" font-family="Arial, sans-serif" font-size="17" fill="#1e1e1e" text-anchor="middle"><tspan x="160" dy="0">Page ready</tspan></text>
  <rect x="300" y="946" width="190" height="86" rx="12" stroke="#64748b" fill="#f8fafc" stroke-width="2" opacity="1"/>
  <text y="995.75" font-family="Arial, sans-serif" font-size="18" fill="#1e1e1e" text-anchor="middle"><tspan x="395" dy="0">Hero + sticky topbar</tspan></text>
  <polygon points="630,930 710,990 630,1050 550,990" stroke="#b45309" fill="#fff4db" stroke-width="2" opacity="1"/>
  <text y="996.375" font-family="Arial, sans-serif" font-size="17" fill="#1e1e1e" text-anchor="middle"><tspan x="630" dy="0">Filter lane?</tspan></text>
  <rect x="770" y="928" width="210" height="92" rx="12" stroke="#047857" fill="#ecfdf5" stroke-width="2" opacity="1"/>
  <text y="969.5" font-family="Arial, sans-serif" font-size="18" fill="#1e1e1e" text-anchor="middle"><tspan x="875" dy="0">applyFilter()</tspan><tspan x="875" dy="22.5">show matching steps</tspan></text>
  <rect x="1030" y="928" width="190" height="104" rx="12" stroke="#0284c7" fill="#e0f2fe" stroke-width="2" opacity="1"/>
  <text y="975.5" font-family="Arial, sans-serif" font-size="18" fill="#1e1e1e" text-anchor="middle"><tspan x="1125" dy="0">Project stream</tspan><tspan x="1125" dy="22.5">cards + media + access band</tspan></text>
  <rect x="320" y="1104" width="220" height="88" rx="12" stroke="#4f46e5" fill="#eef2ff" stroke-width="2" opacity="1"/>
  <text y="1143.5" font-family="Arial, sans-serif" font-size="18" fill="#1e1e1e" text-anchor="middle"><tspan x="430" dy="0">Scroll or rail click</tspan><tspan x="430" dy="22.5">setActiveProject()</tspan></text>
  <rect x="600" y="1092" width="250" height="112" rx="12" stroke="#4f46e5" fill="#eef2ff" stroke-width="2" opacity="1"/>
  <text y="1143.5" font-family="Arial, sans-serif" font-size="18" fill="#1e1e1e" text-anchor="middle"><tspan x="725" dy="0">requestAnimationFrame</tspan><tspan x="725" dy="22.5">progress + card depth + rail</tspan></text>
  <polygon points="1025,1088 1110,1148 1025,1208 940,1148" stroke="#b45309" fill="#fff4db" stroke-width="2" opacity="1"/>
  <text y="1154.38" font-family="Arial, sans-serif" font-size="17" fill="#1e1e1e" text-anchor="middle"><tspan x="1025" dy="0">Card action?</tspan></text>
  <polyline points="240,989 300,989" stroke="#495057" fill="none" stroke-width="2" opacity="1" marker-end="url(#arrowhead)"/>
  <polyline points="490,989 550,989" stroke="#495057" fill="none" stroke-width="2" opacity="1" marker-end="url(#arrowhead)"/>
  <polyline points="710,989 770,974" stroke="#495057" fill="none" stroke-width="2" opacity="1" marker-end="url(#arrowhead)"/>
  <text y="982.75" font-family="Arial, sans-serif" font-size="14" fill="#495057" text-anchor="middle"><tspan x="740" dy="0">selected</tspan></text>
  <polyline points="980,974 1030,980" stroke="#495057" fill="none" stroke-width="2" opacity="1" marker-end="url(#arrowhead)"/>
  <polyline points="1125,1032 430,1104" stroke="#495057" fill="none" stroke-width="2" opacity="1" marker-end="url(#arrowhead)"/>
  <polyline points="540,1148 600,1148" stroke="#495057" fill="none" stroke-width="2" opacity="1" marker-end="url(#arrowhead)"/>
  <polyline points="850,1148 940,1148" stroke="#495057" fill="none" stroke-width="2" opacity="1" marker-end="url(#arrowhead)"/>
  <rect x="1330" y="110" width="820" height="570" rx="8" stroke="#adb5bd" fill="none" stroke-width="2" opacity="1" stroke-dasharray="10 8"/><text x="1344" y="134" font-family="Arial, sans-serif" font-size="16" fill="#6b7280">Project Dossier Modal</text>
  <rect x="1370" y="226" width="210" height="92" rx="12" stroke="#0284c7" fill="#e0f2fe" stroke-width="2" opacity="1"/>
  <text y="267.5" font-family="Arial, sans-serif" font-size="18" fill="#1e1e1e" text-anchor="middle"><tspan x="1475" dy="0">Open Dossier</tspan><tspan x="1475" dy="22.5">button or card click</tspan></text>
  <rect x="1640" y="226" width="210" height="92" rx="12" stroke="#047857" fill="#ecfdf5" stroke-width="2" opacity="1"/>
  <text y="267.5" font-family="Arial, sans-serif" font-size="18" fill="#1e1e1e" text-anchor="middle"><tspan x="1745" dy="0">getProject(id)</tspan><tspan x="1745" dy="22.5">select active project</tspan></text>
  <rect x="1910" y="210" width="200" height="124" rx="12" stroke="#4f46e5" fill="#eef2ff" stroke-width="2" opacity="1"/>
  <text y="256.25" font-family="Arial, sans-serif" font-size="18" fill="#1e1e1e" text-anchor="middle"><tspan x="2010" dy="0">Populate modal</tspan><tspan x="2010" dy="22.5">image, outcome, access,</tspan><tspan x="2010" dy="22.5">gallery, lists, tags</tspan></text>
  <rect x="1510" y="410" width="240" height="120" rx="12" stroke="#64748b" fill="#f8fafc" stroke-width="2" opacity="1"/>
  <text y="454.25" font-family="Arial, sans-serif" font-size="18" fill="#1e1e1e" text-anchor="middle"><tspan x="1630" dy="0">Open overlay</tspan><tspan x="1630" dy="22.5">page inert + body locked</tspan><tspan x="1630" dy="22.5">focus close button</tspan></text>
  <polygon points="1905,410 2000,474 1905,538 1810,474" stroke="#b45309" fill="#fff4db" stroke-width="2" opacity="1"/>
  <text y="469.75" font-family="Arial, sans-serif" font-size="17" fill="#1e1e1e" text-anchor="middle"><tspan x="1905" dy="0">Close via X,</tspan><tspan x="1905" dy="21.25">Escape, outside?</tspan></text>
  <ellipse cx="1749" cy="611" rx="95" ry="37" stroke="#0f8f55" fill="#e7f8ef" stroke-width="2" opacity="1"/>
  <text y="609" font-family="Arial, sans-serif" font-size="17" fill="#1e1e1e" text-anchor="middle"><tspan x="1749" dy="0">Restore scroll</tspan><tspan x="1749" dy="21.25">and focus</tspan></text>
  <polyline points="1580,272 1640,272" stroke="#495057" fill="none" stroke-width="2" opacity="1" marker-end="url(#arrowhead)"/>
  <polyline points="1850,272 1910,272" stroke="#495057" fill="none" stroke-width="2" opacity="1" marker-end="url(#arrowhead)"/>
  <polyline points="2010,334 1630,410" stroke="#495057" fill="none" stroke-width="2" opacity="1" marker-end="url(#arrowhead)"/>
  <polyline points="1750,470 1810,470" stroke="#495057" fill="none" stroke-width="2" opacity="1" marker-end="url(#arrowhead)"/>
  <polyline points="1905,538 1748,574" stroke="#495057" fill="none" stroke-width="2" opacity="1" marker-end="url(#arrowhead)"/>
  <text y="557.25" font-family="Arial, sans-serif" font-size="14" fill="#495057" text-anchor="middle"><tspan x="1826.5" dy="0">yes</tspan></text>
  <polyline points="1110,1148 1370,272" stroke="#0284c7" fill="none" stroke-width="2" opacity="1" marker-end="url(#arrowhead)"/>
  <text y="711.25" font-family="Arial, sans-serif" font-size="14" fill="#0284c7" text-anchor="middle"><tspan x="1240" dy="0">Open Dossier</tspan></text>
  <rect x="1330" y="730" width="820" height="300" rx="8" stroke="#adb5bd" fill="none" stroke-width="2" opacity="1" stroke-dasharray="10 8"/><text x="1344" y="754" font-family="Arial, sans-serif" font-size="16" fill="#6b7280">External Access Outcomes</text>
  <polygon points="1465,824 1550,886 1465,948 1380,886" stroke="#b45309" fill="#fff4db" stroke-width="2" opacity="1"/>
  <text y="881.75" font-family="Arial, sans-serif" font-size="17" fill="#1e1e1e" text-anchor="middle"><tspan x="1465" dy="0">Project has</tspan><tspan x="1465" dy="21.25">public URL?</tspan></text>
  <rect x="1620" y="790" width="190" height="84" rx="12" stroke="#047857" fill="#ecfdf5" stroke-width="2" opacity="1"/>
  <text y="827.5" font-family="Arial, sans-serif" font-size="18" fill="#1e1e1e" text-anchor="middle"><tspan x="1715" dy="0">demoUrl opens</tspan><tspan x="1715" dy="22.5">new tab</tspan></text>
  <rect x="1620" y="910" width="190" height="84" rx="12" stroke="#c2410c" fill="#fff7ed" stroke-width="2" opacity="1"/>
  <text y="947.5" font-family="Arial, sans-serif" font-size="18" fill="#1e1e1e" text-anchor="middle"><tspan x="1715" dy="0">Protected demos</tspan><tspan x="1715" dy="22.5">may require sign-in</tspan></text>
  <rect x="1880" y="850" width="220" height="108" rx="12" stroke="#64748b" fill="#f8fafc" stroke-width="2" opacity="1"/>
  <text y="888.25" font-family="Arial, sans-serif" font-size="18" fill="#1e1e1e" text-anchor="middle"><tspan x="1990" dy="0">No public URL</tspan><tspan x="1990" dy="22.5">source link or local/internal</tspan><tspan x="1990" dy="22.5">preview only</tspan></text>
  <polyline points="1025,1088 1380,886" stroke="#047857" fill="none" stroke-width="2" opacity="1" marker-end="url(#arrowhead)"/>
  <text y="988.25" font-family="Arial, sans-serif" font-size="14" fill="#047857" text-anchor="middle"><tspan x="1202.5" dy="0">Visit / source</tspan></text>
  <polyline points="1550,856 1620,832" stroke="#495057" fill="none" stroke-width="2" opacity="1" marker-end="url(#arrowhead)"/>
  <text y="845.25" font-family="Arial, sans-serif" font-size="14" fill="#495057" text-anchor="middle"><tspan x="1585" dy="0">yes</tspan></text>
  <polyline points="1550,894 1620,950" stroke="#495057" fill="none" stroke-width="2" opacity="1" marker-end="url(#arrowhead)"/>
  <text y="923.25" font-family="Arial, sans-serif" font-size="14" fill="#495057" text-anchor="middle"><tspan x="1585" dy="0">protected</tspan></text>
  <polyline points="1550,888 1880,904" stroke="#495057" fill="none" stroke-width="2" opacity="1" marker-end="url(#arrowhead)"/>
  <text y="897.25" font-family="Arial, sans-serif" font-size="14" fill="#495057" text-anchor="middle"><tspan x="1715" dy="0">no</tspan></text>
  <rect x="1330" y="1080" width="820" height="300" rx="8" stroke="#adb5bd" fill="none" stroke-width="2" opacity="1" stroke-dasharray="10 8"/><text x="1344" y="1104" font-family="Arial, sans-serif" font-size="16" fill="#6b7280">Portfolio Maintenance Flow</text>
  <rect x="1370" y="1188" width="210" height="92" rx="12" stroke="#047857" fill="#ecfdf5" stroke-width="2" opacity="1"/>
  <text y="1229.5" font-family="Arial, sans-serif" font-size="18" fill="#1e1e1e" text-anchor="middle"><tspan x="1475" dy="0">Edit project record</tspan><tspan x="1475" dy="22.5">inside rawProjects[]</tspan></text>
  <rect x="1640" y="1188" width="200" height="92" rx="12" stroke="#047857" fill="#ecfdf5" stroke-width="2" opacity="1"/>
  <text y="1229.5" font-family="Arial, sans-serif" font-size="18" fill="#1e1e1e" text-anchor="middle"><tspan x="1740" dy="0">Add/update media</tspan><tspan x="1740" dy="22.5">under static/</tspan></text>
  <rect x="1900" y="1188" width="210" height="92" rx="12" stroke="#0284c7" fill="#e0f2fe" stroke-width="2" opacity="1"/>
  <text y="1229.5" font-family="Arial, sans-serif" font-size="18" fill="#1e1e1e" text-anchor="middle"><tspan x="2005" dy="0">Preview locally</tspan><tspan x="2005" dy="22.5">python3 -m http.server 8000</tspan></text>
  <polyline points="1580,1234 1640,1234" stroke="#495057" fill="none" stroke-width="2" opacity="1" marker-end="url(#arrowhead)"/>
  <polyline points="1840,1234 1900,1234" stroke="#495057" fill="none" stroke-width="2" opacity="1" marker-end="url(#arrowhead)"/>
  <text y="1322" font-family="Arial, sans-serif" font-size="16" fill="#475569" text-anchor="start"><tspan x="60" dy="0">Legend: blue = rendered UI, green = data/content, orange = decision/access branch, gray = browser/runtime support</tspan></text>
</svg>
